Topo_ital_20160225.ufo
<glyph name="B" format="1">
  <advance width="582.140395064"/>
  <unicode hex="0042"/>
  <outline>
    <contour>
      <point x="233" y="713" type="line"/>
      <point x="216" y="629" type="line"/>
      <point x="417" y="629" type="line"/>
      <point x="499" y="629"/>
      <point x="524" y="602"/>
      <point x="524" y="546" type="curve"/>
      <point x="524" y="457"/>
      <point x="466" y="406"/>
      <point x="347" y="406" type="curve"/>
      <point x="198" y="406" type="line"/>
      <point x="181" y="322" type="line"/>
      <point x="339" y="322" type="line"/>
      <point x="436" y="322"/>
      <point x="475" y="300"/>
      <point x="475" y="227" type="curve"/>
      <point x="475" y="131"/>
      <point x="411" y="84"/>
      <point x="288" y="84" type="curve"/>
      <point x="134" y="84" type="line"/>
      <point x="116" y="0" type="line"/>
      <point x="278" y="0" type="line"/>
      <point x="460" y="0"/>
      <point x="578" y="84"/>
      <point x="578" y="229" type="curve"/>
      <point x="578" y="353"/>
      <point x="478" y="398"/>
      <point x="364" y="398" type="curve"/>
      <point x="445" y="359" type="line"/>
      <point x="541" y="359"/>
      <point x="625" y="463"/>
      <point x="625" y="546" type="curve" smooth="yes"/>
      <point x="625" y="648"/>
      <point x="585" y="713"/>
      <point x="438" y="713" type="curve"/>
    </contour>
    <contour>
      <point x="171" y="0" type="line"/>
      <point x="310" y="713" type="line"/>
      <point x="209" y="713" type="line"/>
      <point x="70" y="0" type="line"/>
    </contour>
  </outline>
</glyph>
<glyph name="C" format="1">
  <advance width="585.871052084"/>
  <unicode hex="0043"/>
  <outline>
    <contour>
      <point x="622" y="585" type="line"/>
      <point x="567" y="627"/>
      <point x="506" y="638"/>
      <point x="457" y="638" type="curve"/>
      <point x="297" y="638"/>
      <point x="238" y="421"/>
      <point x="238" y="252" type="curve" smooth="yes"/>
      <point x="238" y="143"/>
      <point x="296" y="74"/>
      <point x="373" y="74" type="curve"/>
      <point x="469" y="74"/>
      <point x="520" y="108"/>
      <point x="586" y="155" type="curve"/>
      <point x="566" y="63" type="line"/>
      <point x="517" y="20"/>
      <point x="441" y="-12"/>
      <point x="355" y="-12" type="curve"/>
      <point x="224" y="-12"/>
      <point x="131" y="91"/>
      <point x="131" y="257" type="curve" smooth="yes"/>
      <point x="131" y="532"/>
      <point x="256" y="725"/>
      <point x="466" y="725" type="curve" smooth="yes"/>
      <point x="537" y="725"/>
      <point x="602" y="709"/>
      <point x="643" y="680" type="curve"/>
    </contour>
  </outline>
</glyph>
<glyph name="E" format="1">
  <advance width="493.0"/>
  <unicode hex="0045"/>
  <outline>
    <contour>
      <point x="168" y="406" type="line"/>
      <point x="151" y="322" type="line"/>
      <point x="481" y="322" type="line"/>
      <point x="497" y="406" type="line"/>
    </contour>
    <contour>
      <point x="233" y="713" type="line"/>
      <point x="216" y="629" type="line"/>
      <point x="567" y="629" type="line"/>
      <point x="584" y="713" type="line"/>
    </contour>
    <contour>
      <point x="171" y="0" type="line"/>
      <point x="310" y="713" type="line"/>
      <point x="209" y="713" type="line"/>
      <point x="70" y="0" type="line"/>
    </contour>
    <contour>
      <point x="114" y="84" type="line"/>
      <point x="97" y="0" type="line"/>
      <point x="453" y="0" type="line"/>
      <point x="469" y="84" type="line"/>
    </contour>
  </outline>
</glyph>
<glyph name="G" format="1">
  <advance width="642"/>
  <unicode hex="0047"/>
  <outline>
    <contour>
      <point x="577" y="62" type="line"/>
      <point x="476" y="62" type="line"/>
      <point x="539" y="384" type="line"/>
      <point x="640" y="384" type="line"/>
    </contour>
    <contour>
      <point x="440" y="386" type="line"/>
      <point x="639" y="386" type="line"/>
      <point x="623" y="302" type="line"/>
      <point x="424" y="302" type="line"/>
    </contour>
    <contour>
      <point x="631" y="585" type="line"/>
      <point x="576" y="627"/>
      <point x="515" y="638"/>
      <point x="466" y="638" type="curve"/>
      <point x="306" y="638"/>
      <point x="247" y="421"/>
      <point x="247" y="252" type="curve" smooth="yes"/>
      <point x="247" y="143"/>
      <point x="305" y="74"/>
      <point x="382" y="74" type="curve"/>
      <point x="478" y="74"/>
      <point x="529" y="108"/>
      <point x="595" y="155" type="curve"/>
      <point x="577" y="61" type="line"/>
      <point x="528" y="18"/>
      <point x="450" y="-12"/>
      <point x="364" y="-12" type="curve"/>
      <point x="233" y="-12"/>
      <point x="140" y="91"/>
      <point x="140" y="257" type="curve" smooth="yes"/>
      <point x="140" y="532"/>
      <point x="265" y="725"/>
      <point x="475" y="725" type="curve" smooth="yes"/>
      <point x="546" y="725"/>
      <point x="611" y="709"/>
      <point x="652" y="680" type="curve"/>
    </contour>
  </outline>
</glyph>
<glyph name="I" format="1">
  <advance width="383.406839585"/>
  <unicode hex="0049"/>
  <outline>
    <contour>
      <point x="458" y="629"/>
      <point x="475" y="713"/>
      <point x="475" y="713" type="curve"/>
      <point x="186" y="713" type="line"/>
      <point x="186" y="713"/>
      <point x="169" y="629"/>
      <point x="169" y="629" type="curve"/>
      <point x="458" y="629" type="line"/>
    </contour>
    <contour>
      <point x="325" y="0"/>
      <point x="341" y="84"/>
      <point x="341" y="84" type="curve"/>
      <point x="74" y="84" type="line"/>
      <point x="74" y="84"/>
      <point x="58" y="0"/>
      <point x="58" y="0" type="curve"/>
      <point x="325" y="0" type="line"/>
    </contour>
    <contour>
      <point x="242" y="0" type="line"/>
      <point x="381" y="713" type="line"/>
      <point x="280" y="713" type="line"/>
      <point x="141" y="0" type="line"/>
    </contour>
  </outline>
</glyph>
<glyph name="N" format="1">
  <advance width="613.406839585"/>
  <unicode hex="004E"/>
  <outline>
    <contour>
      <point x="464" y="0" type="line"/>
      <point x="378" y="713" type="line"/>
      <point x="289" y="713" type="line"/>
      <point x="375" y="0" type="line"/>
    </contour>
    <contour>
      <point x="171" y="0" type="line"/>
      <point x="310" y="713" type="line"/>
      <point x="209" y="713" type="line"/>
      <point x="70" y="0" type="line"/>
    </contour>
    <contour>
      <point x="543" y="0" type="line"/>
      <point x="682" y="713" type="line"/>
      <point x="581" y="713" type="line"/>
      <point x="442" y="0" type="line"/>
    </contour>
  </outline>
</glyph>
<glyph name="P" format="1">
  <advance width="578"/>
  <unicode hex="0050"/>
  <outline>
    <contour>
      <point x="213" y="0" type="line"/>
      <point x="352" y="713" type="line"/>
      <point x="251" y="713" type="line"/>
      <point x="112" y="0" type="line"/>
    </contour>
    <contour>
      <point x="275" y="713" type="line"/>
      <point x="258" y="629" type="line"/>
      <point x="459" y="629" type="line"/>
      <point x="541" y="629"/>
      <point x="566" y="602"/>
      <point x="566" y="546" type="curve"/>
      <point x="566" y="457"/>
      <point x="508" y="406"/>
      <point x="389" y="406" type="curve"/>
      <point x="240" y="406" type="line"/>
      <point x="223" y="322" type="line"/>
      <point x="381" y="322" type="line"/>
      <point x="586" y="322"/>
      <point x="667" y="442"/>
      <point x="667" y="546" type="curve" smooth="yes"/>
      <point x="667" y="648"/>
      <point x="627" y="713"/>
      <point x="480" y="713" type="curve"/>
    </contour>
  </outline>
</glyph>
<glyph name="S" format="1">
  <advance width="528.278881983"/>
  <unicode hex="0053"/>
  <outline>
    <contour>
      <point x="511" y="266"/>
      <point x="450" y="324"/>
      <point x="371" y="393" type="curve" smooth="yes"/>
      <point x="305" y="450"/>
      <point x="267" y="481"/>
      <point x="267" y="537" type="curve" smooth="yes"/>
      <point x="267" y="602"/>
      <point x="314" y="634"/>
      <point x="387" y="634" type="curve" smooth="yes"/>
      <point x="437" y="634"/>
      <point x="500" y="616"/>
      <point x="546" y="576" type="curve"/>
      <point x="564" y="668" type="line"/>
      <point x="524" y="704"/>
      <point x="453" y="725"/>
      <point x="388" y="725" type="curve" smooth="yes"/>
      <point x="260" y="725"/>
      <point x="163" y="663"/>
      <point x="163" y="538" type="curve" smooth="yes"/>
      <point x="163" y="445"/>
      <point x="208" y="394"/>
      <point x="294" y="322" type="curve" smooth="yes"/>
      <point x="363" y="265"/>
      <point x="400" y="235"/>
      <point x="400" y="183" type="curve"/>
      <point x="400" y="107"/>
      <point x="353" y="74"/>
      <point x="268" y="74" type="curve" smooth="yes"/>
      <point x="203" y="74"/>
      <point x="135" y="109"/>
      <point x="94" y="148" type="curve"/>
      <point x="68" y="48" type="line"/>
      <point x="131" y="12"/>
      <point x="204" y="-12"/>
      <point x="271" y="-12" type="curve" smooth="yes"/>
      <point x="421" y="-12"/>
      <point x="511" y="61"/>
      <point x="511" y="194" type="curve" smooth="yes"/>
    </contour>
  </outline>
</glyph>
<glyph name="e" format="1">
  <advance width="500"/>
  <unicode hex="0065"/>
  <outline>
    <contour>
      <point x="205" y="524"/>
      <point x="91" y="362"/>
      <point x="91" y="199" type="curve"/>
      <point x="91" y="70"/>
      <point x="155" y="-12"/>
      <point x="276" y="-12" type="curve" smooth="yes"/>
      <point x="335" y="-12"/>
      <point x="416" y="6"/>
      <point x="464" y="55" type="curve"/>
      <point x="436" y="126" type="line"/>
      <point x="373" y="79"/>
      <point x="317" y="69"/>
      <point x="278" y="69" type="curve" smooth="yes"/>
      <point x="209" y="69"/>
      <point x="188" y="110"/>
      <point x="188" y="199" type="curve" smooth="yes"/>
      <point x="188" y="315"/>
      <point x="247" y="439"/>
      <point x="361" y="439" type="curve" smooth="yes"/>
      <point x="408" y="439"/>
      <point x="427" y="414"/>
      <point x="427" y="380" type="curve" smooth="yes"/>
      <point x="427" y="285"/>
      <point x="294" y="250"/>
      <point x="162" y="250" type="curve"/>
      <point x="162" y="174" type="line"/>
      <point x="321" y="174"/>
      <point x="524" y="236"/>
      <point x="524" y="379" type="curve" smooth="yes"/>
      <point x="524" y="464"/>
      <point x="472" y="524"/>
      <point x="361" y="524" type="curve"/>
    </contour>
  </outline>
</glyph>
<glyph name="g" format="1">
  <advance width="549"/>
  <unicode hex="0067"/>
  <outline>
    <contour>
      <point x="433" y="288" type="line"/>
      <point x="406" y="136"/>
      <point x="343" y="69"/>
      <point x="263" y="69" type="curve" smooth="yes"/>
      <point x="210" y="69"/>
      <point x="186" y="113"/>
      <point x="186" y="184" type="curve" smooth="yes"/>
      <point x="186" y="296"/>
      <point x="242" y="439"/>
      <point x="357" y="439" type="curve" smooth="yes"/>
      <point x="414" y="439"/>
      <point x="441" y="422"/>
      <point x="467" y="395" type="curve"/>
      <point x="467" y="395"/>
      <point x="551" y="471"/>
      <point x="551" y="471" type="curve"/>
      <point x="487" y="491"/>
      <point x="443" y="524"/>
      <point x="357" y="524" type="curve" smooth="yes"/>
      <point x="191" y="524"/>
      <point x="90" y="354"/>
      <point x="90" y="184" type="curve" smooth="yes"/>
      <point x="90" y="63"/>
      <point x="152" y="-12"/>
      <point x="246" y="-12" type="curve" smooth="yes"/>
      <point x="371" y="-12"/>
      <point x="448" y="118"/>
      <point x="485" y="269" type="curve"/>
    </contour>
    <contour>
      <point x="366" y="-237"/>
      <point x="436" y="-167"/>
      <point x="466" y="-15" type="curve" smooth="yes"/>
      <point x="560" y="468" type="line"/>
      <point x="551" y="471" type="line"/>
      <point x="462" y="463" type="line"/>
      <point x="372" y="0" type="line" smooth="yes"/>
      <point x="352" y="-104"/>
      <point x="329" y="-155"/>
      <point x="223" y="-155" type="curve" smooth="yes"/>
      <point x="167" y="-155"/>
      <point x="121" y="-139"/>
      <point x="72" y="-108" type="curve"/>
      <point x="50" y="-197" type="line"/>
      <point x="90" y="-226"/>
      <point x="159" y="-237"/>
      <point x="220" y="-237" type="curve" smooth="yes"/>
    </contour>
  </outline>
</glyph>
<glyph name="h" format="1">
  <advance width="557"/>
  <unicode hex="0068"/>
  <outline>
    <contour>
      <point x="221" y="306" type="curve"/>
      <point x="292" y="403"/>
      <point x="348" y="439"/>
      <point x="397" y="439" type="curve" smooth="yes"/>
      <point x="444" y="439"/>
      <point x="455" y="406"/>
      <point x="455" y="372" type="curve" smooth="yes"/>
      <point x="455" y="337"/>
      <point x="442" y="291"/>
      <point x="432" y="242" type="curve" smooth="yes"/>
      <point x="385" y="0" type="line"/>
      <point x="482" y="0" type="line"/>
      <point x="522" y="206" type="line" smooth="yes"/>
      <point x="536" y="278"/>
      <point x="555" y="341"/>
      <point x="555" y="390" type="curve" smooth="yes"/>
      <point x="555" y="477"/>
      <point x="508" y="525"/>
      <point x="429" y="524" type="curve" smooth="yes"/>
      <point x="339" y="523"/>
      <point x="262" y="466"/>
      <point x="205" y="371" type="curve"/>
      <point x="205" y="298" type="line"/>
      <point x="205" y="298"/>
      <point x="221" y="306"/>
    </contour>
    <contour>
      <point x="177" y="0" type="line"/>
      <point x="318" y="725" type="line"/>
      <point x="221" y="725" type="line"/>
      <point x="80" y="0" type="line"/>
    </contour>
  </outline>
</glyph>
<glyph name="j" format="1">
  <advance width="277"/>
  <unicode hex="006A"/>
  <outline>
    <contour>
      <point x="-130" y="-113" type="curve"/>
      <point x="-151" y="-200" type="line"/>
      <point x="-104" y="-229"/>
      <point x="-61" y="-233"/>
      <point x="-5" y="-233" type="curve" smooth="yes"/>
      <point x="100" y="-233"/>
      <point x="154" y="-161"/>
      <point x="175" y="-51" type="curve" smooth="yes"/>
      <point x="287" y="524" type="line"/>
      <point x="190" y="524" type="line"/>
      <point x="82" y="-31" type="line" smooth="yes"/>
      <point x="66" y="-114"/>
      <point x="45" y="-148"/>
      <point x="-24" y="-148" type="curve" smooth="yes"/>
      <point x="-71" y="-148"/>
      <point x="-98" y="-131"/>
    </contour>
    <contour>
      <point x="263" y="613" type="curve" smooth="yes"/>
      <point x="314" y="613"/>
      <point x="338" y="634"/>
      <point x="338" y="674" type="curve" smooth="yes"/>
      <point x="338" y="714"/>
      <point x="314" y="735"/>
      <point x="263" y="735" type="curve" smooth="yes"/>
      <point x="211" y="735"/>
      <point x="189" y="714"/>
      <point x="189" y="674" type="curve" smooth="yes"/>
      <point x="189" y="634"/>
      <point x="212" y="613"/>
    </contour>
  </outline>
</glyph>
<glyph name="n" format="1">
  <advance width="554.28500886"/>
  <unicode hex="006E"/>
  <outline>
    <contour>
      <point x="174" y="0" type="line"/>
      <point x="249" y="386" type="line"/>
      <point x="225" y="386" type="line"/>
      <point x="222" y="394" type="line"/>
      <point x="239" y="447"/>
      <point x="244" y="476"/>
      <point x="244" y="512" type="curve"/>
      <point x="144" y="512" type="line"/>
      <point x="147" y="459"/>
      <point x="157" y="410"/>
      <point x="139" y="319" type="curve" smooth="yes"/>
      <point x="77" y="0" type="line"/>
    </contour>
    <contour>
      <point x="218" y="306" type="curve"/>
      <point x="289" y="403"/>
      <point x="345" y="439"/>
      <point x="394" y="439" type="curve" smooth="yes"/>
      <point x="441" y="439"/>
      <point x="452" y="406"/>
      <point x="452" y="372" type="curve" smooth="yes"/>
      <point x="452" y="337"/>
      <point x="439" y="291"/>
      <point x="429" y="242" type="curve" smooth="yes"/>
      <point x="382" y="0" type="line"/>
      <point x="479" y="0" type="line"/>
      <point x="519" y="206" type="line" smooth="yes"/>
      <point x="533" y="278"/>
      <point x="552" y="341"/>
      <point x="552" y="390" type="curve" smooth="yes"/>
      <point x="552" y="477"/>
      <point x="505" y="525"/>
      <point x="426" y="524" type="curve" smooth="yes"/>
      <point x="336" y="523"/>
      <point x="259" y="466"/>
      <point x="202" y="371" type="curve"/>
      <point x="202" y="298" type="line"/>
      <point x="202" y="298"/>
      <point x="218" y="306"/>
    </contour>
  </outline>
</glyph>
<glyph name="o" format="1">
  <advance width="530"/>
  <unicode hex="006F"/>
  <outline>
    <contour>
      <point x="538" y="349" type="curve" smooth="yes"/>
      <point x="538" y="174"/>
      <point x="448" y="-12"/>
      <point x="256" y="-12" type="curve" smooth="yes"/>
      <point x="134" y="-12"/>
      <point x="89" y="86"/>
      <point x="89" y="176" type="curve" smooth="yes"/>
      <point x="89" y="299"/>
      <point x="142" y="524"/>
      <point x="363" y="524" type="curve" smooth="yes"/>
      <point x="484" y="524"/>
      <point x="538" y="448"/>
    </contour>
    <contour>
      <point x="381" y="69"/>
      <point x="437" y="215"/>
      <point x="437" y="341" type="curve" smooth="yes"/>
      <point x="437" y="403"/>
      <point x="412" y="440"/>
      <point x="347" y="440" type="curve" smooth="yes"/>
      <point x="227" y="440"/>
      <point x="182" y="275"/>
      <point x="182" y="175" type="curve" smooth="yes"/>
      <point x="182" y="112"/>
      <point x="207" y="69"/>
      <point x="271" y="69" type="curve" smooth="yes"/>
    </contour>
  </outline>
</glyph>
<glyph name="p" format="1">
  <advance width="556"/>
  <unicode hex="0070"/>
  <outline>
    <contour>
      <point x="132" y="-216" type="line"/>
      <point x="249" y="386" type="line"/>
      <point x="225" y="386" type="line"/>
      <point x="221" y="394" type="line"/>
      <point x="237" y="446"/>
      <point x="244" y="476"/>
      <point x="244" y="512" type="curve"/>
      <point x="144" y="512" type="line"/>
      <point x="147" y="459"/>
      <point x="157" y="410"/>
      <point x="139" y="319" type="curve" smooth="yes"/>
      <point x="35" y="-216" type="line"/>
    </contour>
    <contour>
      <point x="127" y="54" type="curve"/>
      <point x="173" y="17"/>
      <point x="210" y="-12"/>
      <point x="281" y="-12" type="curve" smooth="yes"/>
      <point x="441" y="-12"/>
      <point x="561" y="136"/>
      <point x="561" y="332" type="curve" smooth="yes"/>
      <point x="561" y="459"/>
      <point x="514" y="524"/>
      <point x="416" y="524" type="curve" smooth="yes"/>
      <point x="335" y="524"/>
      <point x="252" y="477"/>
      <point x="188" y="352" type="curve"/>
      <point x="188" y="352"/>
      <point x="127" y="54"/>
    </contour>
    <contour>
      <point x="228" y="317" type="line"/>
      <point x="282" y="399"/>
      <point x="336" y="439"/>
      <point x="389" y="439" type="curve" smooth="yes"/>
      <point x="440" y="439"/>
      <point x="462" y="409"/>
      <point x="462" y="332" type="curve" smooth="yes"/>
      <point x="462" y="205"/>
      <point x="398" y="69"/>
      <point x="280" y="69" type="curve" smooth="yes"/>
      <point x="238" y="69"/>
      <point x="209" y="83"/>
      <point x="186" y="101" type="curve"/>
    </contour>
  </outline>
</glyph>
<glyph name="q" format="1">
  <advance width="549"/>
  <unicode hex="0071"/>
  <outline>
    <contour>
      <point x="433" y="288" type="line"/>
      <point x="406" y="136"/>
      <point x="343" y="69"/>
      <point x="263" y="69" type="curve" smooth="yes"/>
      <point x="210" y="69"/>
      <point x="186" y="113"/>
      <point x="186" y="184" type="curve" smooth="yes"/>
      <point x="186" y="296"/>
      <point x="242" y="439"/>
      <point x="357" y="439" type="curve" smooth="yes"/>
      <point x="414" y="439"/>
      <point x="441" y="422"/>
      <point x="467" y="395" type="curve"/>
      <point x="467" y="395"/>
      <point x="551" y="471"/>
      <point x="551" y="471" type="curve"/>
      <point x="487" y="491"/>
      <point x="443" y="524"/>
      <point x="357" y="524" type="curve" smooth="yes"/>
      <point x="191" y="524"/>
      <point x="90" y="354"/>
      <point x="90" y="184" type="curve" smooth="yes"/>
      <point x="90" y="63"/>
      <point x="152" y="-12"/>
      <point x="246" y="-12" type="curve" smooth="yes"/>
      <point x="371" y="-12"/>
      <point x="448" y="118"/>
      <point x="485" y="269" type="curve"/>
    </contour>
    <contour>
      <point x="427" y="-216" type="line"/>
      <point x="427" y="-216"/>
      <point x="560" y="468"/>
      <point x="560" y="468" type="curve"/>
      <point x="551" y="471" type="line"/>
      <point x="462" y="463" type="line"/>
      <point x="462" y="463"/>
      <point x="330" y="-216"/>
      <point x="330" y="-216" type="curve"/>
    </contour>
  </outline>
</glyph>
<glyph name="t" format="1">
  <advance width="346"/>
  <unicode hex="0074"/>
  <outline>
    <contour>
      <point x="221.0" y="622.0" type="line"/>
      <point x="149.0" y="252.0" type="line"/>
      <point x="149.0" y="252.0"/>
      <point x="245.0" y="247.0"/>
      <point x="245.0" y="247.0" type="curve"/>
      <point x="324.0" y="653.0" type="line"/>
    </contour>
    <contour>
      <point x="342" y="84" type="line"/>
      <point x="317" y="75"/>
      <point x="289" y="70"/>
      <point x="268" y="70" type="curve" smooth="yes"/>
      <point x="244" y="70"/>
      <point x="222" y="81"/>
      <point x="222" y="116" type="curve" smooth="yes"/>
      <point x="222" y="144"/>
      <point x="236" y="203"/>
      <point x="244" y="242" type="curve" smooth="yes"/>
      <point x="253" y="288" type="line"/>
      <point x="156" y="288" type="line"/>
      <point x="142" y="216" type="line" smooth="yes"/>
      <point x="133" y="169"/>
      <point x="123" y="126"/>
      <point x="123" y="92" type="curve"/>
      <point x="123" y="33"/>
      <point x="167" y="-6"/>
      <point x="232" y="-6" type="curve" smooth="yes"/>
      <point x="276" y="-6"/>
      <point x="309" y="3"/>
      <point x="331" y="12" type="curve"/>
    </contour>
    <contour>
      <point x="409" y="408" type="line"/>
      <point x="425" y="492" type="line"/>
      <point x="108" y="492" type="line"/>
      <point x="92" y="408" type="line"/>
    </contour>
  </outline>
</glyph>
<glyph name="u" format="1">
  <advance width="551"/>
  <unicode hex="0075"/>
  <outline>
    <contour>
      <point x="473" y="512" type="line"/>
      <point x="399" y="126" type="line"/>
      <point x="431" y="129" type="line"/>
      <point x="416" y="83"/>
      <point x="409" y="46"/>
      <point x="413" y="0" type="curve"/>
      <point x="507" y="0" type="line"/>
      <point x="498" y="71"/>
      <point x="499" y="146"/>
      <point x="516" y="234" type="curve" smooth="yes"/>
      <point x="570" y="512" type="line"/>
    </contour>
    <contour>
      <point x="428" y="209" type="curve"/>
      <point x="358" y="114"/>
      <point x="305" y="73"/>
      <point x="257" y="73" type="curve" smooth="yes"/>
      <point x="213" y="73"/>
      <point x="203" y="106"/>
      <point x="203" y="140" type="curve" smooth="yes"/>
      <point x="203" y="175"/>
      <point x="217" y="222"/>
      <point x="227" y="271" type="curve" smooth="yes"/>
      <point x="274" y="512" type="line"/>
      <point x="177" y="512" type="line"/>
      <point x="137" y="307" type="line" smooth="yes"/>
      <point x="123" y="235"/>
      <point x="103" y="171"/>
      <point x="103" y="122" type="curve" smooth="yes"/>
      <point x="103" y="36"/>
      <point x="149" y="-12"/>
      <point x="225" y="-12" type="curve" smooth="yes"/>
      <point x="313" y="-12"/>
      <point x="388" y="51"/>
      <point x="444" y="144" type="curve"/>
      <point x="444" y="217" type="line"/>
      <point x="444" y="217"/>
      <point x="428" y="209"/>
    </contour>
  </outline>
</glyph>
<glyph name="w" format="1">
  <advance width="795"/>
  <unicode hex="0077"/>
  <outline>
    <contour>
      <point x="479" y="0" type="line"/>
      <point x="620" y="0" type="line"/>
      <point x="795" y="188"/>
      <point x="832" y="356"/>
      <point x="859" y="512" type="curve"/>
      <point x="748" y="512" type="line"/>
      <point x="722" y="389"/>
      <point x="715" y="241"/>
      <point x="575" y="77" type="curve"/>
      <point x="509" y="8" type="line"/>
      <point x="570" y="8" type="line"/>
      <point x="525" y="432" type="line" smooth="yes"/>
      <point x="425" y="406" type="line"/>
    </contour>
    <contour>
      <point x="166" y="0" type="line"/>
      <point x="307" y="0" type="line"/>
      <point x="482" y="188"/>
      <point x="519" y="356"/>
      <point x="546" y="512" type="curve"/>
      <point x="435" y="512" type="line"/>
      <point x="409" y="389"/>
      <point x="402" y="241"/>
      <point x="262" y="77" type="curve"/>
      <point x="196" y="8" type="line"/>
      <point x="257" y="8" type="line"/>
      <point x="215" y="432" type="line" smooth="yes"/>
      <point x="212" y="459"/>
      <point x="209" y="482"/>
      <point x="209" y="512" type="curve"/>
      <point x="102" y="512" type="line"/>
      <point x="102" y="476"/>
      <point x="111" y="441"/>
      <point x="115" y="406" type="curve" smooth="yes"/>
    </contour>
  </outline>
</glyph>
<glyph name="y" format="1">
  <advance width="513"/>
  <unicode hex="0079"/>
  <outline>
    <contour>
      <point x="176" y="0" type="line"/>
      <point x="337" y="0" type="line" smooth="yes"/>
      <point x="575" y="512" type="line"/>
      <point x="465" y="512" type="line"/>
      <point x="245" y="16" type="line"/>
      <point x="263" y="16" type="line"/>
      <point x="216" y="512" type="line"/>
      <point x="116" y="512" type="line"/>
    </contour>
    <contour>
      <point x="234" y="-11" type="line"/>
      <point x="244" y="10" type="line"/>
      <point x="347.0" y="22.0" type="line"/>
      <point x="332" y="-11" type="line"/>
      <point x="289" y="-101" type="line" smooth="yes"/>
      <point x="237" y="-210"/>
      <point x="174" y="-237"/>
      <point x="70" y="-237" type="curve"/>
      <point x="42" y="-237"/>
      <point x="14" y="-233"/>
      <point x="-2" y="-229" type="curve"/>
      <point x="17" y="-147" type="line"/>
      <point x="38" y="-153"/>
      <point x="52" y="-155"/>
      <point x="74" y="-155" type="curve"/>
      <point x="133" y="-155"/>
      <point x="176" y="-131"/>
      <point x="194" y="-94" type="curve" smooth="yes"/>
    </contour>
    <contour>
      <point x="234.0" y="-11.0" type="move"/>
      <point x="244" y="10" type="line"/>
      <point x="347.0" y="22.0" type="line"/>
      <point x="332.0" y="-11.0" type="line"/>
    </contour>
  </outline>
</glyph>
<glyph name="z" format="1">
  <advance width="448"/>
  <unicode hex="007A"/>
  <outline>
    <contour>
      <point x="129" y="512" type="line"/>
      <point x="113" y="430" type="line"/>
      <point x="398" y="430" type="line"/>
      <point x="399" y="440" type="line"/>
      <point x="71" y="112" type="line"/>
      <point x="49" y="0" type="line"/>
      <point x="409" y="0" type="line"/>
      <point x="422" y="82" type="line"/>
      <point x="121" y="82" type="line"/>
      <point x="143" y="72" type="line"/>
      <point x="471" y="400" type="line"/>
      <point x="493" y="512" type="line"/>
    </contour>
  </outline>
</glyph>
